    <svg
              xmlns="http://www.w3.org/2000/svg"
              width="32"
              height="32"
              viewBox="0 0 32 32"
              fill="none"
            >
              <path
                opacity="0.2"
                d="M16 28C22.6274 28 28 22.6274 28 16C28 9.37258 22.6274 4 16 4C9.37258 4 4 9.37258 4 16C4 22.6274 9.37258 28 16 28Z"
                fill="#188475"
              />
              <path
                d="M21.5 13L14.1625 20L10.5 16.5"
                stroke="#188475"
                stroke-width="3"
                stroke-linecap="round"
                stroke-linejoin="round"
              />
              <path
                d="M16 28C22.6274 28 28 22.6274 28 16C28 9.37258 22.6274 4 16 4C9.37258 4 4 9.37258 4 16C4 22.6274 9.37258 28 16 28Z"
                stroke="#188475"
                stroke-width="3"
                stroke-linecap="round"
                stroke-linejoin="round"
              />
            </svg>