<svg
        xmlns="http://www.w3.org/2000/svg"
        width="32"
        height="32"
        viewBox="0 0 32 32"
        fill="none"
      >
        <path
          d="M16.0001 4C13.572 3.99929 11.2007 4.73521 9.19964 6.11053C7.19856 7.48586 5.66178 9.43589 4.7923 11.703C3.92283 13.9701 3.76158 16.4477 4.32984 18.8084C4.89811 21.1691 6.16916 23.3019 7.97509 24.925C8.72758 23.4432 9.87569 22.1986 11.2922 21.3293C12.7086 20.46 14.3381 19.9999 16.0001 20C15.0112 20 14.0445 19.7068 13.2222 19.1574C12.4 18.6079 11.7591 17.8271 11.3807 16.9134C11.0023 15.9998 10.9032 14.9945 11.0962 14.0246C11.2891 13.0546 11.7653 12.1637 12.4646 11.4645C13.1638 10.7652 14.0547 10.289 15.0246 10.0961C15.9945 9.90315 16.9999 10.0022 17.9135 10.3806C18.8271 10.759 19.608 11.3999 20.1574 12.2222C20.7068 13.0444 21.0001 14.0111 21.0001 15C21.0001 16.3261 20.4733 17.5979 19.5356 18.5355C18.5979 19.4732 17.3262 20 16.0001 20C17.662 19.9999 19.2916 20.46 20.708 21.3293C22.1245 22.1986 23.2726 23.4432 24.0251 24.925C25.831 23.3019 27.1021 21.1691 27.6703 18.8084C28.2386 16.4477 28.0774 13.9701 27.2079 11.703C26.3384 9.43589 24.8016 7.48586 22.8005 6.11053C20.7995 4.73521 18.4282 3.99929 16.0001 4Z"
          fill="white"
        />
        <path
          d="M16 28C22.6274 28 28 22.6274 28 16C28 9.37258 22.6274 4 16 4C9.37258 4 4 9.37258 4 16C4 22.6274 9.37258 28 16 28Z"
          stroke="white"
          stroke-width="1.2"
          stroke-linecap="round"
          stroke-linejoin="round"
        />
        <path
          d="M16 20C18.7614 20 21 17.7614 21 15C21 12.2386 18.7614 10 16 10C13.2386 10 11 12.2386 11 15C11 17.7614 13.2386 20 16 20Z"
          stroke="white"
          stroke-width="1.2"
          stroke-linecap="round"
          stroke-linejoin="round"
        />
        <path
          d="M7.9751 24.925C8.72749 23.4431 9.87555 22.1984 11.292 21.3289C12.7085 20.4595 14.3381 19.9993 16.0001 19.9993C17.6621 19.9993 19.2917 20.4595 20.7082 21.3289C22.1247 22.1984 23.2727 23.4431 24.0251 24.925"
          stroke="white"
          stroke-width="1.2"
          stroke-linecap="round"
          stroke-linejoin="round"
        />
      </svg>